<svg width="72" height="82" viewBox="0 0 72 82" fill="none" xmlns="http://www.w3.org/2000/svg">
<path d="M71.0866 22.6308L71.0259 22.5259C70.9418 22.3514 70.8448 22.1844 70.7365 22.0257L59.3287 2.30305C58.5069 0.882463 56.9771 0 55.336 0H16.0757C14.432 0 12.9009 0.884545 12.0795 2.30898L0.485755 22.4224C0.381333 22.6037 0.306059 22.7933 0.252887 22.986C0.0896874 23.4266 0 23.9027 0 24.3995V76.3487C0 79.4647 2.53512 81.9998 5.65112 81.9998H65.7585C68.8745 81.9998 71.4096 79.4647 71.4096 76.3487V24.2091C71.4096 24.1394 71.4076 24.0702 71.4039 24.0014C71.4365 23.539 71.3363 23.0622 71.0866 22.6308ZM38.1903 4.80646H55.2242L64.1981 20.3213H38.1903V4.80646ZM16.1877 4.80646H33.3838V20.3213H7.24452L16.1877 4.80646ZM66.6032 76.3489C66.6032 76.8146 66.2243 77.1935 65.7585 77.1935H5.65112C5.18539 77.1935 4.80646 76.8146 4.80646 76.3489V25.1278H66.6032V76.3489Z" fill="#444444"/>
<rect x="33.7049" y="33" width="5" height="31" fill="#444444"/>
<rect x="20.7049" y="51" width="5" height="31" transform="rotate(-90 20.7049 51)" fill="#444444"/>
</svg>
