<svg width="117" height="96" viewBox="0 0 117 96" fill="none" xmlns="http://www.w3.org/2000/svg">
<path d="M58.0358 34.8218C67.6518 34.8218 75.4467 27.027 75.4467 17.411C75.4467 7.79495 67.6518 0.00012207 58.0358 0.00012207C48.4198 0.00012207 40.625 7.79495 40.625 17.411C40.6354 27.0222 48.4245 34.8114 58.0358 34.8218ZM58.0358 3.8692C65.5152 3.8692 71.5776 9.93163 71.5776 17.411C71.5776 24.8903 65.5152 30.9527 58.0358 30.9527C50.5565 30.9527 44.4941 24.8903 44.4941 17.411C44.5026 9.93541 50.5603 3.8777 58.0358 3.8692Z" fill="#CC0202"/>
<path d="M17.411 29.0182C22.7527 29.0182 27.0837 24.6872 27.0837 19.3455C27.0837 14.0038 22.7527 9.67279 17.411 9.67279C12.0693 9.67279 7.73828 14.0038 7.73828 19.3455C7.74489 24.6853 12.0712 29.0116 17.411 29.0182ZM17.411 13.5419C20.616 13.5419 23.2146 16.1405 23.2146 19.3455C23.2146 22.5505 20.616 25.1491 17.411 25.1491C14.2059 25.1491 11.6074 22.5505 11.6074 19.3455C11.6074 16.1405 14.2059 13.5419 17.411 13.5419Z" fill="#CC0202"/>
<path d="M98.661 29.0182C104.003 29.0182 108.334 24.6872 108.334 19.3455C108.334 14.0038 104.003 9.67279 98.661 9.67279C93.3193 9.67279 88.9883 14.0038 88.9883 19.3455C88.9949 24.6853 93.3212 29.0116 98.661 29.0182ZM98.661 13.5419C101.866 13.5419 104.465 16.1405 104.465 19.3455C104.465 22.5505 101.866 25.1491 98.661 25.1491C95.4559 25.1491 92.8574 22.5505 92.8574 19.3455C92.8574 16.1405 95.4559 13.5419 98.661 13.5419Z" fill="#CC0202"/>
<path d="M106.4 29.0182C105.981 29.0182 105.574 29.1542 105.239 29.4055L98.6614 34.3382L92.0842 29.4055C91.7488 29.1542 91.3417 29.0182 90.9233 29.0182C87.739 29.0144 84.7616 30.5938 82.9782 33.232C80.0434 31.7453 76.8025 30.965 73.5124 30.9527C72.9995 30.9527 72.5074 31.1568 72.1446 31.5195L58.0361 45.628L43.9276 31.5195C43.5649 31.1568 43.0727 30.9527 42.5598 30.9527C39.2698 30.965 36.0289 31.7453 33.094 33.232C31.3106 30.5938 28.3332 29.0144 25.149 29.0182C24.7305 29.0182 24.3234 29.1542 23.9881 29.4055L17.4108 34.3382L10.8336 29.4055C10.4983 29.1542 10.0911 29.0182 9.67269 29.0182C4.33287 29.0248 0.0066122 33.3511 0 38.6909V55.8892C0.000944598 57.8917 1.0315 59.7535 2.728 60.8181L14.5648 68.22C15.4886 68.7801 16.5475 69.0758 17.6271 69.0748C18.5236 69.0767 19.4077 68.8708 20.2097 68.4731L21.2799 67.9375V76.8016C21.279 79.098 22.6316 81.1789 24.7315 82.1093L54.1132 95.1656C56.6088 96.2783 59.4596 96.2783 61.9553 95.1656L91.3389 82.1075C93.4387 81.178 94.7923 79.097 94.7923 76.8016V65.9973L96.0732 66.633C97.7026 67.4454 99.6183 67.4454 101.248 66.633L112.855 60.8294C114.83 59.8537 116.078 57.8398 116.072 55.637V38.6909C116.066 33.3511 111.739 29.0248 106.4 29.0182ZM18.4811 65.0008C17.8803 65.2946 17.1709 65.2634 16.5985 64.9177L4.79762 57.5375C4.23086 57.1786 3.88135 56.5598 3.86907 55.8892V38.6909C3.86907 35.7192 6.11344 33.2273 9.06909 32.9184L16.2499 38.3036C16.9376 38.8203 17.8841 38.8203 18.5717 38.3036L25.7526 32.9184C27.3631 33.0828 28.8291 33.9178 29.7917 35.2185C29.6623 35.3149 29.5499 35.4292 29.4223 35.5284C29.1229 35.7636 28.8424 36.012 28.5514 36.2614C28.1802 36.5844 27.8184 36.9131 27.4727 37.2589C27.2054 37.5262 26.9522 37.7992 26.6981 38.0797C26.3732 38.4406 26.0615 38.8127 25.762 39.1962C25.5344 39.49 25.3115 39.7762 25.0989 40.0898C24.8184 40.4903 24.5605 40.9022 24.3092 41.3197C24.1156 41.6333 23.9342 41.9469 23.7623 42.27C23.5299 42.7092 23.3231 43.1598 23.1219 43.6236C22.9783 43.9485 22.8272 44.2697 22.6996 44.605C22.506 45.0905 22.3634 45.5874 22.2122 46.089C22.1159 46.412 22.0054 46.7266 21.9241 47.0562C21.7853 47.6164 21.688 48.1917 21.5954 48.766C21.5491 49.0484 21.4811 49.3252 21.4462 49.6095C21.3375 50.4795 21.2818 51.3561 21.2799 52.2326V63.6113L18.4811 65.0008ZM90.9233 76.8016C90.9233 77.5705 90.467 78.2658 89.7623 78.5737L60.3806 91.6337C58.8872 92.3006 57.1813 92.3006 55.6879 91.6337L26.3099 78.5737C25.6052 78.2658 25.149 77.5705 25.149 76.8016V52.2326C25.148 50.7449 25.336 49.2628 25.7082 47.8223C27.6597 40.4488 34.168 35.194 41.7862 34.8388L56.6816 49.7351C57.4372 50.4908 58.6624 50.4908 59.4171 49.7351L74.3134 34.8388C83.6017 35.2818 90.9091 42.934 90.9233 52.2326V76.8016ZM112.203 55.637C112.205 56.3766 111.787 57.052 111.123 57.3788L99.5163 63.1824C98.9779 63.4507 98.3431 63.4507 97.8047 63.1824L94.7923 61.673V52.2326C94.7904 51.3523 94.7347 50.4729 94.6261 49.6C94.5911 49.3138 94.5231 49.0371 94.4768 48.7546C94.3824 48.1737 94.2832 47.6069 94.1481 47.0477C94.0669 46.7171 93.9545 46.3997 93.8581 46.0805C93.7089 45.5836 93.5577 45.0886 93.3745 44.605C93.2451 44.2678 93.0921 43.9428 92.9466 43.6141C92.7529 43.1636 92.5442 42.7168 92.3118 42.2794C92.1399 41.9526 91.9482 41.6352 91.7592 41.3121C91.5117 40.8984 91.2539 40.4922 90.9856 40.0974C90.7683 39.7876 90.5426 39.4862 90.3102 39.1877C90.0155 38.8014 89.7104 38.4472 89.3892 38.0892C89.1342 37.8048 88.8725 37.5243 88.6014 37.2532C88.2614 36.9113 87.9034 36.5882 87.5378 36.2689C87.2497 36.0177 86.9578 35.7655 86.6556 35.5284C86.5299 35.4292 86.4175 35.3149 86.2881 35.2185C87.2507 33.9178 88.7157 33.0828 90.3253 32.9184L97.5005 38.3036C98.1882 38.8203 99.1347 38.8203 99.8223 38.3036L107.003 32.9184C109.959 33.2273 112.203 35.7192 112.203 38.6909V55.637Z" fill="#CC0202"/>
</svg>
