<svg width="96" height="96" viewBox="0 0 96 96" fill="none" xmlns="http://www.w3.org/2000/svg">
<path d="M79.9994 69.1778L75.9244 66.7364C74.6822 65.9934 73.2611 65.6012 71.8135 65.6004H65.6807C64.4252 65.5981 63.1752 65.7598 61.9611 66.0801L43.483 71.0403C41.4627 71.5981 39.84 73.1028 39.1322 75.0754L22.8791 66.2825C21.5611 65.5325 20.0181 65.2778 18.5291 65.5637C17.9674 65.6629 17.4228 65.8418 16.9111 66.095C15.7556 66.6481 14.7971 67.5418 14.1627 68.6551C13.608 69.6246 13.3166 70.7223 13.3166 71.8387C13.2994 74.1184 14.5072 76.2309 16.4791 77.3731L45.6088 94.802C46.8744 95.5856 48.3322 96.0004 49.8205 96.0004H72.3642C73.3713 96.0012 74.3689 95.8106 75.3049 95.4403L79.9994 93.5864V96.0004H95.9994V64.0004H79.9994V69.1778ZM74.1291 92.4645C73.5689 92.6856 72.9713 92.7997 72.3689 92.8004H49.8205C48.9189 92.7997 48.0353 92.5457 47.2713 92.0676L18.1017 74.6184C17.1103 74.0457 16.5033 72.9848 16.5111 71.8403C16.5135 71.2793 16.6611 70.7278 16.94 70.2403C17.2588 69.6879 17.7385 69.245 18.3142 68.9715C18.5682 68.8481 18.8369 68.7606 19.1142 68.7121C19.3166 68.6746 19.5221 68.6551 19.7275 68.6551C20.2775 68.6536 20.8181 68.7973 21.2955 69.0707L38.9197 78.5942C38.94 78.6918 38.94 78.7879 38.9658 78.8856C39.7236 81.6786 42.2572 83.6184 45.1517 83.6215C46.0424 83.5403 46.9244 83.3825 47.7885 83.1512L64.4119 78.7028L63.5869 75.6114L47.0174 80.0403C46.2877 80.2082 45.3463 80.4004 45.1517 80.4168C43.7064 80.4192 42.4392 79.4536 42.0588 78.0598C42.0072 77.8661 41.9767 77.6676 41.9658 77.4676C41.9658 77.4676 41.9533 77.0801 41.9658 76.9442C42.0877 75.6059 43.0252 74.4825 44.3197 74.1223L62.79 69.1809C63.733 68.9286 64.7049 68.8004 65.6807 68.8004H71.8135C72.6822 68.8004 73.5346 69.0364 74.2791 69.4825L79.9994 72.9075V90.1442L74.1291 92.4645ZM83.1994 67.2004H92.7994V92.8004H83.1994V67.2004Z" fill="#CC0202"/>
<path d="M65.9906 12.8002L57.4078 4.21815C54.7133 1.50799 51.0469 -0.0107568 47.2258 0.000180739H27.1102C25.8687 0.00174324 24.6445 0.291587 23.5328 0.844712L19.9469 2.63846C19.2281 3.00018 18.4297 3.17284 17.6258 3.14081L16 3.08377V0.000180739H0V35.2002H16V30.4002H18.7203L19.6883 31.04C22.3969 32.8385 25.5508 33.8541 28.8 33.9728V54.4002H96V12.8002H65.9906ZM12.8 32.0002H3.2V3.20018H12.8V32.0002ZM21.4594 28.3775L19.6797 27.2002H16V6.28534L17.5086 6.33924C18.8484 6.3869 20.1781 6.09862 21.3773 5.50096L24.9602 3.70721C25.6273 3.37362 26.3641 3.20018 27.1102 3.20018H47.2258C50.1977 3.19159 53.05 4.37284 55.1453 6.47987L61.4656 12.8002H48.2625L44.3789 8.91737L42.1172 11.1791L53.4195 22.4822C54.675 23.7322 54.6789 25.7635 53.4289 27.0197C52.1781 28.2752 50.1469 28.2791 48.8914 27.0291L39.4516 17.5892L38.3312 18.5494C35.2383 21.176 30.7172 21.2431 27.5469 18.7088L26.6195 17.9572L24.6031 20.4431L25.5406 21.2033C26.5211 21.9869 27.6219 22.6072 28.8 23.04V30.7713C26.1812 30.6549 23.643 29.8275 21.4594 28.3775ZM44.2195 26.8799L46.6336 29.2947C49.1398 31.7635 53.1633 31.7674 55.6734 29.3025C53.325 32.9392 54.2516 37.7791 57.7773 40.2908C61.3031 42.8025 66.1805 42.0971 68.85 38.69C71.5195 35.2822 71.0375 30.3775 67.7547 27.5556C64.4727 24.7338 59.5508 24.9924 56.5828 28.1424C57.6758 26.426 57.8711 24.2869 57.107 22.4002H78.5328C79.2211 26.426 82.3742 29.5791 86.4 30.2674V36.933C82.3742 37.6213 79.2211 40.7744 78.5328 44.8002H46.2672C45.5789 40.7744 42.4258 37.6213 38.4 36.933V30.2674C40.6867 29.8822 42.7547 28.6783 44.2195 26.8799ZM57.6 33.6002C57.6 30.9494 59.7492 28.8002 62.4 28.8002C65.0508 28.8002 67.2 30.9494 67.2 33.6002C67.2 36.251 65.0508 38.4002 62.4 38.4002C59.7492 38.4002 57.6 36.251 57.6 33.6002ZM92.8 51.2002H32V23.7103C34.5367 23.901 37.0656 23.2541 39.2 21.8705L41.9297 24.6002C40.7289 26.2314 38.8258 27.1963 36.8 27.2002H35.2V40.0002H36.8C40.3344 40.0002 43.2 42.8658 43.2 46.4002V48.0002H81.6V46.4002C81.6 42.8658 84.4656 40.0002 88 40.0002H89.6V27.2002H88C84.4656 27.2002 81.6 24.3346 81.6 20.8002V19.2002H54.6625L51.4625 16.0002H92.8V51.2002Z" fill="#CC0202"/>
</svg>
