<svg width="96" height="96" viewBox="0 0 96 96" fill="none" xmlns="http://www.w3.org/2000/svg">
<path d="M52.7998 48.0001V51.2931C48.2061 51.7876 44.7998 54.3759 44.7998 57.6001C44.7998 61.1892 49.0178 64.0001 54.3998 64.0001C58.0639 64.0001 60.7998 65.69 60.7998 67.2001C60.7998 68.7103 58.0639 70.4001 54.3998 70.4001C50.7357 70.4001 47.9998 68.7103 47.9998 67.2001H44.7998C44.7998 70.4243 48.2061 73.0126 52.7998 73.5072V76.8001H55.9998V73.5072C60.5936 73.0126 63.9998 70.4243 63.9998 67.2001C63.9998 63.6111 59.7818 60.8001 54.3998 60.8001C50.7357 60.8001 47.9998 59.1103 47.9998 57.6001C47.9998 56.09 50.7357 54.4001 54.3998 54.4001C58.0639 54.4001 60.7998 56.09 60.7998 57.6001H63.9998C63.9998 54.3759 60.5936 51.7876 55.9998 51.2931V48.0001H52.7998Z" fill="#CC0202"/>
<path d="M94.1391 81.9985L90.5938 77.7508C88.9219 75.7266 88.0055 73.1852 88 70.5602V61.9039C87.9883 52.5946 84.1273 43.7047 77.3313 37.3422L66.0625 26.8289C68.0922 26.1571 69.6453 24.5071 70.1937 22.4406C70.7422 20.3742 70.2117 18.1711 68.782 16.5805L75.6531 7.7469C76.7789 6.29924 76.982 4.33596 76.175 2.6883C75.368 1.04065 73.6922 -0.00232132 71.8578 2.24387e-05H65.4766C64.2352 -0.00154006 63.0422 0.478929 62.1484 1.34065L59.2211 4.16018L56.4688 1.40627C55.5703 0.502366 54.3477 -0.0038838 53.0734 2.24387e-05H38.5422C36.7094 2.24387e-05 35.0359 1.04455 34.2305 2.69143C33.425 4.3383 33.6281 6.30002 34.7539 7.7469L40.9602 15.7188C39.0641 17.1313 38.1109 19.4797 38.4859 21.8141C38.8609 24.1485 40.5016 26.0805 42.7438 26.8289L38.4 30.8797V30.4C38.4 27.7492 36.2508 25.6 33.6 25.6H4.8C2.14922 25.6 0 27.7492 0 30.4V33.6C0 36.2508 2.14922 38.4 4.8 38.4H6.69453C6.50469 38.9125 6.40547 39.4539 6.4 40V43.2C6.40547 43.7461 6.50469 44.2875 6.69453 44.8H4.8C2.14922 44.8 0 46.9492 0 49.6V52.8C0 55.4508 2.14922 57.6 4.8 57.6H5.09453C4.90469 58.1125 4.80547 58.6539 4.8 59.2V62.4C4.80547 62.9461 4.90469 63.4875 5.09453 64H4.8C2.14922 64 0 66.1492 0 68.8V72C0 74.6508 2.14922 76.8 4.8 76.8H5.09453C4.90469 77.3125 4.80547 77.8539 4.8 78.4V81.6C4.80547 82.1461 4.90469 82.6875 5.09453 83.2H4.8C2.14922 83.2 0 85.3492 0 88V91.2C0 93.8508 2.14922 96 4.8 96H88C92.4164 95.9946 95.9945 92.4164 96 88V87.1203C95.9969 85.2477 95.3383 83.436 94.1391 81.9985ZM37.2797 5.78049C36.9055 5.29846 36.8383 4.64534 37.107 4.0969C37.375 3.54846 37.932 3.2008 38.5422 3.20002H53.0734C53.4984 3.20002 53.9062 3.36799 54.2062 3.66877L56.9602 6.42424C58.1977 7.64455 60.1805 7.66252 61.4398 6.46408L64.3664 3.64612C64.6648 3.3594 65.0625 3.19924 65.4766 3.20002H71.8578C72.468 3.2008 73.025 3.54846 73.293 4.0969C73.5617 4.64534 73.4945 5.29846 73.1203 5.78049L66.418 14.4H43.982L37.2797 5.78049ZM41.6 20.8C41.6 19.0328 43.0328 17.6 44.8 17.6H64C65.7672 17.6 67.2 19.0328 67.2 20.8C67.2 22.5672 65.7672 24 64 24H44.8C43.0328 24 41.6 22.5672 41.6 20.8ZM56 41.6813C55.4703 41.6399 54.9406 41.6 54.4 41.6C53.8594 41.6 53.3297 41.6399 52.8 41.6813V27.2H56V41.6813ZM72 62.4C72 72.1203 64.1203 80 54.4 80C44.6797 80 36.8 72.1203 36.8 62.4C36.8 52.6797 44.6797 44.8 54.4 44.8C64.1156 44.8117 71.9883 52.6844 72 62.4ZM3.2 33.6V30.4C3.2 29.5164 3.91641 28.8 4.8 28.8H33.6C34.4836 28.8 35.2 29.5164 35.2 30.4V33.6C35.1906 33.7086 35.1695 33.8156 35.1375 33.9203L33.7953 35.1727C33.7305 35.186 33.6656 35.1953 33.6 35.2V32H30.4V35.2H27.2V32H24V35.2H20.8V32H17.6V35.2H14.4V32H11.2V35.2H8V32H4.8V35.2C3.91641 35.2 3.2 34.4836 3.2 33.6ZM9.6 43.2V40C9.6 39.1164 10.3164 38.4 11.2 38.4H30.418C28.5266 40.3242 26.8789 42.4735 25.5117 44.8H20.8V41.6H17.6V44.8H14.4V41.6H11.2V44.8C10.3164 44.8 9.6 44.0836 9.6 43.2ZM3.2 52.8V49.6C3.2 48.7164 3.91641 48 4.8 48H23.8141C22.8867 50.0547 22.1727 52.1992 21.6836 54.4H20.8V51.2H17.6V54.4H14.4V51.2H11.2V54.4H8V51.2H4.8V54.4C3.91641 54.4 3.2 53.6836 3.2 52.8ZM8 62.4V59.2C8 58.3164 8.71641 57.6 9.6 57.6H21.0836C20.8961 59.0274 20.8016 60.4649 20.8 61.9039V64H19.2V60.8H16V64H12.8V60.8H9.6V64C8.71641 64 8 63.2836 8 62.4ZM3.2 72V68.8C3.2 67.9164 3.91641 67.2 4.8 67.2H20.8V70.5602C20.7992 71.5883 20.6547 72.6117 20.3711 73.6H14.4V70.4H11.2V73.6H8V70.4H4.8V73.6C3.91641 73.6 3.2 72.8836 3.2 72ZM8 81.6V78.4C8 77.5164 8.71641 76.8 9.6 76.8H18.8797C18.6766 77.1266 18.4547 77.4422 18.2156 77.7438L14.6734 81.9875C14.3602 82.3641 14.0836 82.7703 13.8477 83.2H12.8V80H9.6V83.2C8.71641 83.2 8 82.4836 8 81.6ZM8 92.8V89.6H4.8V92.8C3.91641 92.8 3.2 92.0836 3.2 91.2V88C3.2 87.1164 3.91641 86.4 4.8 86.4H12.8688C12.8461 86.6399 12.8 86.8797 12.8 87.1203V88C12.8063 89.7367 13.3828 91.4235 14.4414 92.8H8ZM92.8 88C92.8 90.6508 90.6508 92.8 88 92.8H20.8C18.1492 92.8 16 90.6508 16 88V87.1203C15.9969 86.5164 16.1141 85.918 16.3453 85.3602C16.5258 84.8805 16.7867 84.436 17.1172 84.0446L20.6672 79.7906C21.6711 78.5969 22.4633 77.2407 23.0094 75.7789C23.6641 74.1172 24 72.3461 24 70.5602V61.9039C24.0023 60.025 24.1805 58.15 24.5328 56.3039C25.7297 49.9399 28.9242 44.1227 33.6531 39.6977L47.0305 27.2H49.6V42.1805C39.332 44.6164 32.5148 54.3547 33.7406 64.836C34.9664 75.3172 43.8469 83.2196 54.4 83.2196C64.9531 83.2196 73.8336 75.3172 75.0594 64.836C76.2852 54.3547 69.468 44.6164 59.2 42.1805V27.2H61.7695L75.1484 39.6797C81.2969 45.4375 84.7906 53.4813 84.8 61.9039V70.5602C84.8055 73.9313 85.9836 77.1961 88.1328 79.7938L91.6797 84.0461C92.4008 84.9086 92.7969 85.9961 92.8 87.1203V88Z" fill="#CC0202"/>
</svg>
