<svg width="454" height="30" viewBox="0 0 454 30" fill="none" xmlns="http://www.w3.org/2000/svg">
<path d="M0 30L12.9928 6.5C15.4915 2 18.9895 0 22.9873 0H56.4689L52.4711 6.5H31.4827C28.4843 6.5 26.4854 8 24.9862 10L17.4904 23.5H17.9901H42.9763L38.9785 30H0Z" fill="#CC0202"/>
<path d="M53.9695 18L60.4659 6C62.9645 2 66.4626 0 70.4604 0H103.942L99.9442 6.5H78.456C75.4577 6.5 73.4588 8 71.9596 10L70.9601 12H89.45C93.9475 12 94.9469 14.5 92.4483 19L89.9497 24C87.9508 28 84.4527 30 80.4549 30H46.4736L50.4714 23.5H71.9596C74.9579 23.5 76.9568 22 78.456 20L79.4555 18H53.9695Z" fill="#CC0202"/>
<path d="M99.4443 19.9999L102.443 13.9999H109.939L106.44 19.9999H99.4443Z" fill="#CC0202"/>
<path d="M133.926 0H168.407L160.411 14.5C157.912 18.5 155.414 21 151.916 21H130.927L125.43 30H111.438L125.93 5C127.429 1.5 129.928 0 133.926 0ZM142.421 6.5C138.923 6.5 136.424 9 133.926 14.5H134.425H145.919C146.918 13.5 148.418 11 150.916 6.5H150.417H142.421Z" fill="#CC0202"/>
<path d="M183.899 0H217.381L199.89 30H186.898L191.895 21H180.401L174.404 30H160.412L173.905 7C176.403 2.5 179.402 0 183.899 0ZM191.395 6.5C187.897 6.5 185.398 9 182.9 14.5H194.893L199.89 6.5H191.395Z" fill="#CC0202"/>
<path d="M228.873 0H263.354L255.359 14.5L247.863 18.5L252.36 19L246.363 30H232.871L237.868 21H226.375L220.878 30H206.885L221.377 5C222.876 1.5 225.375 0 228.873 0ZM237.868 6.5C234.37 6.5 231.871 9 229.373 14.5H229.873H241.366C242.366 13.5 243.865 11 246.363 6.5H245.864H237.868Z" fill="#CC0202"/>
<path d="M255.86 30L268.853 6.5C271.851 2 275.349 0 279.347 0H312.828L308.831 6.5H287.343C284.344 6.5 282.345 8 280.846 10L272.85 23.5H273.35H298.336L295.338 30H255.86Z" fill="#CC0202"/>
<path d="M323.322 18.5L320.323 23.5H320.823H345.809L341.812 30H302.833L315.826 6.5C318.324 2 321.823 0 325.82 0H359.802L355.804 6.5H334.316C331.317 6.5 329.318 8 327.819 10L326.82 12H347.309L343.311 18.5H323.322Z" fill="#CC0202"/>
<path d="M366.798 23.5H392.284L388.786 30H349.807L365.798 0H380.79L366.798 23.5Z" fill="#CC0202"/>
<path d="M403.777 18L409.774 6C412.772 2 416.27 0 420.268 0H453.75L449.752 6.5H428.264C425.265 6.5 423.266 8 421.767 10L420.768 12H439.258C443.755 12 444.755 14.5 442.256 19L439.757 24C437.259 28 433.761 30 429.763 30H396.281L400.279 23.5H421.767C424.766 23.5 426.764 22 428.264 20L429.263 18H403.777Z" fill="#CC0202"/>
</svg>
